<mxfile host="app.diagrams.net" modified="2022-05-24T16:28:33.884Z" agent="5.0 (Windows NT 10.0; Win64; x64) AppleWebKit/537.36 (KHTML, like Gecko) Chrome/100.0.4896.127 Safari/537.36" etag="XR3f8s7VDGHl_JD4dU1M" version="17.5.0" type="github">
  <diagram id="prtHgNgQTEPvFCAcTncT" name="Page-1">
    <mxGraphModel dx="2105" dy="547" grid="1" gridSize="10" guides="1" tooltips="1" connect="1" arrows="1" fold="1" page="1" pageScale="1" pageWidth="827" pageHeight="1169" math="0" shadow="0">
      <root>
        <mxCell id="0" />
        <mxCell id="1" parent="0" />
        <mxCell id="Jns4mLSrGbLiIDec0Hh4-1" value="&lt;font style=&quot;font-size: 18px&quot;&gt;有形展示&lt;/font&gt;" style="rounded=1;whiteSpace=wrap;html=1;" vertex="1" parent="1">
          <mxGeometry x="-50" y="670" width="120" height="60" as="geometry" />
        </mxCell>
        <mxCell id="Jns4mLSrGbLiIDec0Hh4-2" value="用户行为" style="rounded=1;whiteSpace=wrap;html=1;fontSize=18;" vertex="1" parent="1">
          <mxGeometry x="-50" y="770" width="120" height="60" as="geometry" />
        </mxCell>
        <mxCell id="Jns4mLSrGbLiIDec0Hh4-3" value="前台" style="rounded=1;whiteSpace=wrap;html=1;fontSize=18;" vertex="1" parent="1">
          <mxGeometry x="-50" y="870" width="120" height="60" as="geometry" />
        </mxCell>
        <mxCell id="Jns4mLSrGbLiIDec0Hh4-4" value="后台" style="rounded=1;whiteSpace=wrap;html=1;fontSize=18;" vertex="1" parent="1">
          <mxGeometry x="-50" y="970" width="120" height="60" as="geometry" />
        </mxCell>
        <mxCell id="Jns4mLSrGbLiIDec0Hh4-5" value="支持行为" style="rounded=1;whiteSpace=wrap;html=1;fontSize=18;" vertex="1" parent="1">
          <mxGeometry x="-50" y="1080" width="120" height="60" as="geometry" />
        </mxCell>
        <mxCell id="Jns4mLSrGbLiIDec0Hh4-6" value="" style="endArrow=none;dashed=1;html=1;rounded=0;fontSize=18;" edge="1" parent="1">
          <mxGeometry width="50" height="50" relative="1" as="geometry">
            <mxPoint y="750" as="sourcePoint" />
            <mxPoint x="910" y="750" as="targetPoint" />
          </mxGeometry>
        </mxCell>
        <mxCell id="Jns4mLSrGbLiIDec0Hh4-7" value="" style="endArrow=none;dashed=1;html=1;rounded=0;fontSize=18;" edge="1" parent="1">
          <mxGeometry width="50" height="50" relative="1" as="geometry">
            <mxPoint y="850" as="sourcePoint" />
            <mxPoint x="910" y="850" as="targetPoint" />
          </mxGeometry>
        </mxCell>
        <mxCell id="Jns4mLSrGbLiIDec0Hh4-8" value="" style="endArrow=none;dashed=1;html=1;rounded=0;fontSize=18;" edge="1" parent="1">
          <mxGeometry width="50" height="50" relative="1" as="geometry">
            <mxPoint y="950" as="sourcePoint" />
            <mxPoint x="910" y="950" as="targetPoint" />
          </mxGeometry>
        </mxCell>
        <mxCell id="Jns4mLSrGbLiIDec0Hh4-9" value="" style="endArrow=none;dashed=1;html=1;rounded=0;fontSize=18;" edge="1" parent="1">
          <mxGeometry width="50" height="50" relative="1" as="geometry">
            <mxPoint y="1060" as="sourcePoint" />
            <mxPoint x="910" y="1060" as="targetPoint" />
          </mxGeometry>
        </mxCell>
        <mxCell id="Jns4mLSrGbLiIDec0Hh4-10" value="&lt;font style=&quot;font-size: 14px&quot;&gt;外部互动线&lt;/font&gt;" style="text;html=1;strokeColor=none;fillColor=none;align=center;verticalAlign=middle;whiteSpace=wrap;rounded=0;fontSize=18;" vertex="1" parent="1">
          <mxGeometry x="-90" y="830" width="110" height="30" as="geometry" />
        </mxCell>
        <mxCell id="Jns4mLSrGbLiIDec0Hh4-11" value="&lt;font style=&quot;font-size: 14px&quot;&gt;内部互动线&lt;/font&gt;" style="text;html=1;strokeColor=none;fillColor=none;align=center;verticalAlign=middle;whiteSpace=wrap;rounded=0;fontSize=18;" vertex="1" parent="1">
          <mxGeometry x="-90" y="1040" width="110" height="30" as="geometry" />
        </mxCell>
        <mxCell id="Jns4mLSrGbLiIDec0Hh4-12" value="&lt;font style=&quot;font-size: 14px&quot;&gt;可视线&lt;/font&gt;" style="text;html=1;strokeColor=none;fillColor=none;align=center;verticalAlign=middle;whiteSpace=wrap;rounded=0;fontSize=18;" vertex="1" parent="1">
          <mxGeometry x="-90" y="930" width="110" height="30" as="geometry" />
        </mxCell>
        <mxCell id="Jns4mLSrGbLiIDec0Hh4-13" value="精美的用户界面" style="rounded=1;whiteSpace=wrap;html=1;fontSize=14;" vertex="1" parent="1">
          <mxGeometry x="160" y="670" width="120" height="60" as="geometry" />
        </mxCell>
        <mxCell id="Jns4mLSrGbLiIDec0Hh4-14" value="分科目的&lt;br&gt;网课视频" style="rounded=1;whiteSpace=wrap;html=1;fontSize=14;" vertex="1" parent="1">
          <mxGeometry x="370" y="670" width="120" height="60" as="geometry" />
        </mxCell>
        <mxCell id="Jns4mLSrGbLiIDec0Hh4-15" value="老师答疑视频" style="rounded=1;whiteSpace=wrap;html=1;fontSize=14;" vertex="1" parent="1">
          <mxGeometry x="570" y="670" width="120" height="60" as="geometry" />
        </mxCell>
        <mxCell id="Jns4mLSrGbLiIDec0Hh4-26" style="edgeStyle=orthogonalEdgeStyle;rounded=0;orthogonalLoop=1;jettySize=auto;html=1;exitX=1;exitY=0.5;exitDx=0;exitDy=0;entryX=0;entryY=0.5;entryDx=0;entryDy=0;fontSize=14;" edge="1" parent="1" source="Jns4mLSrGbLiIDec0Hh4-16" target="Jns4mLSrGbLiIDec0Hh4-17">
          <mxGeometry relative="1" as="geometry" />
        </mxCell>
        <mxCell id="Jns4mLSrGbLiIDec0Hh4-16" value="注册账号" style="rounded=1;whiteSpace=wrap;html=1;fontSize=14;" vertex="1" parent="1">
          <mxGeometry x="100" y="770" width="120" height="60" as="geometry" />
        </mxCell>
        <mxCell id="Jns4mLSrGbLiIDec0Hh4-27" style="edgeStyle=orthogonalEdgeStyle;rounded=0;orthogonalLoop=1;jettySize=auto;html=1;exitX=1;exitY=0.5;exitDx=0;exitDy=0;fontSize=14;" edge="1" parent="1" source="Jns4mLSrGbLiIDec0Hh4-17" target="Jns4mLSrGbLiIDec0Hh4-19">
          <mxGeometry relative="1" as="geometry" />
        </mxCell>
        <mxCell id="Jns4mLSrGbLiIDec0Hh4-17" value="搜题" style="rounded=1;whiteSpace=wrap;html=1;fontSize=14;" vertex="1" parent="1">
          <mxGeometry x="260" y="770" width="120" height="60" as="geometry" />
        </mxCell>
        <mxCell id="Jns4mLSrGbLiIDec0Hh4-29" style="edgeStyle=orthogonalEdgeStyle;rounded=0;orthogonalLoop=1;jettySize=auto;html=1;exitX=1;exitY=0.5;exitDx=0;exitDy=0;entryX=0;entryY=0.5;entryDx=0;entryDy=0;fontSize=14;" edge="1" parent="1" source="Jns4mLSrGbLiIDec0Hh4-18" target="Jns4mLSrGbLiIDec0Hh4-20">
          <mxGeometry relative="1" as="geometry" />
        </mxCell>
        <mxCell id="Jns4mLSrGbLiIDec0Hh4-18" value="学习网课" style="rounded=1;whiteSpace=wrap;html=1;fontSize=14;" vertex="1" parent="1">
          <mxGeometry x="590" y="770" width="120" height="60" as="geometry" />
        </mxCell>
        <mxCell id="Jns4mLSrGbLiIDec0Hh4-28" style="edgeStyle=orthogonalEdgeStyle;rounded=0;orthogonalLoop=1;jettySize=auto;html=1;exitX=1;exitY=0.5;exitDx=0;exitDy=0;fontSize=14;" edge="1" parent="1" source="Jns4mLSrGbLiIDec0Hh4-19" target="Jns4mLSrGbLiIDec0Hh4-18">
          <mxGeometry relative="1" as="geometry" />
        </mxCell>
        <mxCell id="Jns4mLSrGbLiIDec0Hh4-19" value="在线答疑" style="rounded=1;whiteSpace=wrap;html=1;fontSize=14;" vertex="1" parent="1">
          <mxGeometry x="420" y="770" width="120" height="60" as="geometry" />
        </mxCell>
        <mxCell id="Jns4mLSrGbLiIDec0Hh4-20" value="在线练习" style="rounded=1;whiteSpace=wrap;html=1;fontSize=14;" vertex="1" parent="1">
          <mxGeometry x="760" y="770" width="120" height="60" as="geometry" />
        </mxCell>
        <mxCell id="Jns4mLSrGbLiIDec0Hh4-30" style="edgeStyle=orthogonalEdgeStyle;rounded=0;orthogonalLoop=1;jettySize=auto;html=1;exitX=0.5;exitY=0;exitDx=0;exitDy=0;fontSize=14;" edge="1" parent="1" source="Jns4mLSrGbLiIDec0Hh4-21" target="Jns4mLSrGbLiIDec0Hh4-19">
          <mxGeometry relative="1" as="geometry" />
        </mxCell>
        <mxCell id="Jns4mLSrGbLiIDec0Hh4-21" value="教师答疑" style="rounded=1;whiteSpace=wrap;html=1;fontSize=14;" vertex="1" parent="1">
          <mxGeometry x="420" y="870" width="120" height="60" as="geometry" />
        </mxCell>
        <mxCell id="Jns4mLSrGbLiIDec0Hh4-24" style="edgeStyle=orthogonalEdgeStyle;rounded=0;orthogonalLoop=1;jettySize=auto;html=1;exitX=0.5;exitY=0;exitDx=0;exitDy=0;entryX=0.5;entryY=1;entryDx=0;entryDy=0;fontSize=14;" edge="1" parent="1" source="Jns4mLSrGbLiIDec0Hh4-22" target="Jns4mLSrGbLiIDec0Hh4-23">
          <mxGeometry relative="1" as="geometry" />
        </mxCell>
        <mxCell id="Jns4mLSrGbLiIDec0Hh4-22" value="注册系统" style="rounded=1;whiteSpace=wrap;html=1;fontSize=14;" vertex="1" parent="1">
          <mxGeometry x="100" y="1080" width="120" height="60" as="geometry" />
        </mxCell>
        <mxCell id="Jns4mLSrGbLiIDec0Hh4-43" value="" style="edgeStyle=orthogonalEdgeStyle;rounded=0;orthogonalLoop=1;jettySize=auto;html=1;fontSize=14;" edge="1" parent="1" source="Jns4mLSrGbLiIDec0Hh4-23" target="Jns4mLSrGbLiIDec0Hh4-40">
          <mxGeometry relative="1" as="geometry" />
        </mxCell>
        <mxCell id="Jns4mLSrGbLiIDec0Hh4-23" value="检验验证码" style="rounded=1;whiteSpace=wrap;html=1;fontSize=14;" vertex="1" parent="1">
          <mxGeometry x="100" y="970" width="120" height="60" as="geometry" />
        </mxCell>
        <mxCell id="Jns4mLSrGbLiIDec0Hh4-35" style="edgeStyle=orthogonalEdgeStyle;rounded=0;orthogonalLoop=1;jettySize=auto;html=1;exitX=0.5;exitY=0;exitDx=0;exitDy=0;entryX=0.25;entryY=1;entryDx=0;entryDy=0;fontSize=14;" edge="1" parent="1" source="Jns4mLSrGbLiIDec0Hh4-31" target="Jns4mLSrGbLiIDec0Hh4-33">
          <mxGeometry relative="1" as="geometry" />
        </mxCell>
        <mxCell id="Jns4mLSrGbLiIDec0Hh4-31" value="OCR" style="rounded=1;whiteSpace=wrap;html=1;fontSize=14;" vertex="1" parent="1">
          <mxGeometry x="230" y="1080" width="120" height="60" as="geometry" />
        </mxCell>
        <mxCell id="Jns4mLSrGbLiIDec0Hh4-37" style="edgeStyle=orthogonalEdgeStyle;rounded=0;orthogonalLoop=1;jettySize=auto;html=1;exitX=0.5;exitY=0;exitDx=0;exitDy=0;entryX=0.75;entryY=1;entryDx=0;entryDy=0;fontSize=14;" edge="1" parent="1" source="Jns4mLSrGbLiIDec0Hh4-32" target="Jns4mLSrGbLiIDec0Hh4-33">
          <mxGeometry relative="1" as="geometry" />
        </mxCell>
        <mxCell id="Jns4mLSrGbLiIDec0Hh4-32" value="题库" style="rounded=1;whiteSpace=wrap;html=1;fontSize=14;" vertex="1" parent="1">
          <mxGeometry x="360" y="1080" width="120" height="60" as="geometry" />
        </mxCell>
        <mxCell id="Jns4mLSrGbLiIDec0Hh4-38" style="edgeStyle=orthogonalEdgeStyle;rounded=0;orthogonalLoop=1;jettySize=auto;html=1;exitX=0.5;exitY=0;exitDx=0;exitDy=0;fontSize=14;" edge="1" parent="1" source="Jns4mLSrGbLiIDec0Hh4-33" target="Jns4mLSrGbLiIDec0Hh4-34">
          <mxGeometry relative="1" as="geometry" />
        </mxCell>
        <mxCell id="Jns4mLSrGbLiIDec0Hh4-33" value="文字匹配" style="rounded=1;whiteSpace=wrap;html=1;fontSize=14;" vertex="1" parent="1">
          <mxGeometry x="260" y="970" width="120" height="60" as="geometry" />
        </mxCell>
        <mxCell id="Jns4mLSrGbLiIDec0Hh4-39" style="edgeStyle=orthogonalEdgeStyle;rounded=0;orthogonalLoop=1;jettySize=auto;html=1;exitX=0.5;exitY=0;exitDx=0;exitDy=0;fontSize=14;" edge="1" parent="1" source="Jns4mLSrGbLiIDec0Hh4-34" target="Jns4mLSrGbLiIDec0Hh4-17">
          <mxGeometry relative="1" as="geometry" />
        </mxCell>
        <mxCell id="Jns4mLSrGbLiIDec0Hh4-34" value="显示答案" style="rounded=1;whiteSpace=wrap;html=1;fontSize=14;" vertex="1" parent="1">
          <mxGeometry x="260" y="870" width="120" height="60" as="geometry" />
        </mxCell>
        <mxCell id="Jns4mLSrGbLiIDec0Hh4-44" style="edgeStyle=orthogonalEdgeStyle;rounded=0;orthogonalLoop=1;jettySize=auto;html=1;exitX=0.5;exitY=0;exitDx=0;exitDy=0;entryX=0.5;entryY=1;entryDx=0;entryDy=0;fontSize=14;" edge="1" parent="1" source="Jns4mLSrGbLiIDec0Hh4-40" target="Jns4mLSrGbLiIDec0Hh4-16">
          <mxGeometry relative="1" as="geometry" />
        </mxCell>
        <mxCell id="Jns4mLSrGbLiIDec0Hh4-40" value="提示信息" style="rounded=1;whiteSpace=wrap;html=1;fontSize=14;" vertex="1" parent="1">
          <mxGeometry x="100" y="870" width="120" height="60" as="geometry" />
        </mxCell>
        <mxCell id="Jns4mLSrGbLiIDec0Hh4-45" value="分配教师" style="rounded=1;whiteSpace=wrap;html=1;fontSize=14;" vertex="1" parent="1">
          <mxGeometry x="420" y="970" width="120" height="60" as="geometry" />
        </mxCell>
      </root>
    </mxGraphModel>
  </diagram>
</mxfile>
